<?xml version="1.0" encoding="UTF-8" standalone="no"?>
<svg
   xmlns:dc="http://purl.org/dc/elements/1.1/"
   xmlns:cc="http://creativecommons.org/ns#"
   xmlns:rdf="http://www.w3.org/1999/02/22-rdf-syntax-ns#"
   xmlns:svg="http://www.w3.org/2000/svg"
   xmlns="http://www.w3.org/2000/svg"
   xmlns:sodipodi="http://sodipodi.sourceforge.net/DTD/sodipodi-0.dtd"
   xmlns:inkscape="http://www.inkscape.org/namespaces/inkscape"
   viewBox="0 0 1197.2 169.48"
   class="text-black "
   role="img"
   aria-label="Les-Tilleuls.coop logo"
   version="1.1"
   id="svg50"
   sodipodi:docname="logo-itop-dark-bg.svg"
   inkscape:version="0.92.4 (5da689c313, 2019-01-14)">
  <metadata
     id="metadata56">
    <rdf:RDF>
      <cc:Work
         rdf:about="">
        <dc:format>image/svg+xml</dc:format>
        <dc:type
           rdf:resource="http://purl.org/dc/dcmitype/StillImage" />
      </cc:Work>
    </rdf:RDF>
  </metadata>
  <defs
     id="defs54" />
  <sodipodi:namedview
     pagecolor="#ffffff"
     bordercolor="#666666"
     borderopacity="1"
     objecttolerance="10"
     gridtolerance="10"
     guidetolerance="10"
     inkscape:pageopacity="0"
     inkscape:pageshadow="2"
     inkscape:window-width="1920"
     inkscape:window-height="1016"
     id="namedview52"
     showgrid="true"
     inkscape:zoom="0.3833946"
     inkscape:cx="99.063348"
     inkscape:cy="10.880912"
     inkscape:window-x="0"
     inkscape:window-y="1107"
     inkscape:window-maximized="1"
     inkscape:current-layer="svg50">
    <inkscape:grid
       type="xygrid"
       id="grid914" />
  </sodipodi:namedview>
  <g
     id="g939">
    <path
       style="fill:#ffffff;fill-opacity:1"
       class="fill-current"
       d="m 385.53,96.15 h 40 v 15 h -40 z"
       id="path2"
       inkscape:connector-curvature="0" />
    <path
       style="fill:#ffffff;fill-opacity:1"
       class="fill-current"
       d="m 505.53,139.48 h -20 v -22.25 c 0,-12 8.31,-21.78 20,-24.41 z"
       id="path4"
       inkscape:connector-curvature="0" />
    <path
       style="fill:#ffffff;fill-opacity:1"
       class="fill-current"
       d="m 745.53,137.09 a 109.69,109.69 0 0 1 -13.16,2.78 108.38,108.38 0 0 1 -16.93,1.28 34.43,34.43 0 0 1 -14,-2.44 22.73,22.73 0 0 1 -9.48,-6.83 26.82,26.82 0 0 1 -5,-10.48 56.58,56.58 0 0 1 -1.48,-13.4 V 67.82 h 20 v 37.74 q 0,9.75 2.56,14.08 c 1.71,2.89 3.89,4.33 8.56,4.33 1.43,0 3,-0.07 4.58,-0.21 1.58,-0.14 3,-0.29 4.3,-0.47 V 67.82 h 20 z"
       id="path6"
       inkscape:connector-curvature="0" />
    <path
       style="fill:#ee4322;fill-opacity:1"
       d="m 1054.11,136.58 a 33.66,33.66 0 0 1 -13.62,-13.07 38.72,38.72 0 0 1 -5,-19.86 38.34,38.34 0 0 1 5,-19.79 33.94,33.94 0 0 1 13.74,-13.14 44.17,44.17 0 0 1 39.13,0 33.9,33.9 0 0 1 13.75,13.14 38.33,38.33 0 0 1 5,19.79 38,38 0 0 1 -5.09,19.8 34.27,34.27 0 0 1 -13.88,13.13 41.86,41.86 0 0 1 -19.63,4.57 41.06,41.06 0 0 1 -19.4,-4.57 z m 30.53,-19.47 q 4.56,-4.69 4.56,-13.46 0,-8.77 -4.43,-13.46 a 15.14,15.14 0 0 0 -21.87,-0.06 q -4.37,4.64 -4.37,13.52 0,8.88 4.3,13.46 a 13.94,13.94 0 0 0 10.77,4.7 14.79,14.79 0 0 0 11.04,-4.7 z"
       class="fill-primary"
       id="path8"
       inkscape:connector-curvature="0" />
    <path
       style="fill:#ee4322;fill-opacity:1"
       d="m 969.11,136.58 a 33.66,33.66 0 0 1 -13.62,-13.07 38.72,38.72 0 0 1 -5,-19.86 38.34,38.34 0 0 1 5,-19.79 33.94,33.94 0 0 1 13.81,-13.14 44.17,44.17 0 0 1 39.13,0 33.9,33.9 0 0 1 13.75,13.14 38.33,38.33 0 0 1 5,19.79 38,38 0 0 1 -5.09,19.8 34.27,34.27 0 0 1 -13.88,13.13 41.86,41.86 0 0 1 -19.63,4.57 41.06,41.06 0 0 1 -19.47,-4.57 z m 30.53,-19.47 q 4.56,-4.69 4.56,-13.46 0,-8.77 -4.43,-13.46 A 15.14,15.14 0 0 0 977.9,90.13 q -4.36,4.64 -4.37,13.52 -0.01,8.88 4.3,13.46 a 13.94,13.94 0 0 0 10.77,4.7 14.79,14.79 0 0 0 11.04,-4.7 z"
       class="fill-primary"
       id="path10"
       inkscape:connector-curvature="0" />
    <path
       style="fill:#ee4322;fill-opacity:1"
       d="m 945.13,129.56 a 46.79,46.79 0 0 1 -4.77,-11.56 14.7,14.7 0 0 1 -10.09,3.8 13.94,13.94 0 0 1 -10.77,-4.7 q -4.31,-4.69 -4.3,-13.46 0.01,-8.77 4.36,-13.52 a 15.17,15.17 0 0 1 20.87,-0.92 47,47 0 0 1 4.78,-11.43 47.81,47.81 0 0 1 5,-7 0.57,0.57 0 0 1 -0.13,-0.08 44.17,44.17 0 0 0 -39.13,0 33.88,33.88 0 0 0 -13.74,13.14 38.24,38.24 0 0 0 -5,19.79 38.62,38.62 0 0 0 5,19.86 33.64,33.64 0 0 0 13.61,13.07 41.08,41.08 0 0 0 19.5,4.57 41.89,41.89 0 0 0 19.63,-4.57 l 0.17,-0.1 a 47.31,47.31 0 0 1 -4.99,-6.89 z"
       class="fill-primary"
       id="path12"
       inkscape:connector-curvature="0" />
    <path
       style="fill:#ffffff;fill-opacity:1"
       class="fill-current"
       d="m 233.87,119.48 h -35 v -100 c -12.51,4 -20,16.13 -20,29.34 v 90.66 h 55 z"
       id="path14"
       inkscape:connector-curvature="0" />
    <path
       style="fill:#ffffff;fill-opacity:1"
       class="fill-current"
       d="m 410.53,19.48 v 20 h 35 v 100 h 20 v -100 h 18.34 a 20,20 0 0 0 20,-20 z"
       id="path16"
       inkscape:connector-curvature="0" />
    <path
       style="fill:#ffffff;fill-opacity:1"
       class="fill-current"
       d="m 668,136.65 a 28.35,28.35 0 0 1 -4.33,1.62 54.09,54.09 0 0 1 -6,1.42 c -2.22,0.41 -4.58,0.75 -7.11,1 a 71.3,71.3 0 0 1 -7.58,0.41 44.76,44.76 0 0 1 -16.71,-2.85 32.42,32.42 0 0 1 -11.77,-7.78 30.89,30.89 0 0 1 -6.9,-11.7 46.32,46.32 0 0 1 -2.23,-14.62 43.29,43.29 0 0 1 2.91,-16.57 35.33,35.33 0 0 1 7.64,-11.84 31.76,31.76 0 0 1 10.89,-7.17 34,34 0 0 1 12.65,-2.44 q 15.16,0 24,9.27 8.84,9.27 8.79,27.27 c 0,1.17 -0.05,2.46 -0.13,3.85 -0.08,1.39 -0.19,2.64 -0.27,3.72 h -45.79 a 13.38,13.38 0 0 0 5.82,9.88 c 3.42,2.44 8,3.66 13.8,3.66 a 57.91,57.91 0 0 0 10.89,-1 c 1.12,-0.21 2.17,-0.44 3.15,-0.68 z M 652.72,96.26 a 21.57,21.57 0 0 0 -0.88,-5 12.61,12.61 0 0 0 -2.3,-4.33 12.32,12.32 0 0 0 -3.93,-3.12 12.8,12.8 0 0 0 -5.88,-1.21 13.46,13.46 0 0 0 -5.82,1.15 11.88,11.88 0 0 0 -4.06,3 13.83,13.83 0 0 0 -2.51,4.4 29.42,29.42 0 0 0 -1.28,5.07 z"
       id="path18"
       inkscape:connector-curvature="0" />
    <path
       style="fill:#ffffff;fill-opacity:1"
       class="fill-current"
       d="m 371.13,105.81 a 26.32,26.32 0 0 0 -6.83,-5.15 83.55,83.55 0 0 0 -11,-4.85 c -2.17,-0.81 -3.95,-1.57 -5.35,-2.25 a 22.29,22.29 0 0 1 -3.31,-1.9 4.61,4.61 0 0 1 -1.63,-1.83 5.44,5.44 0 0 1 -0.4,-2.16 q 0,-5.28 9.47,-5.28 a 41.68,41.68 0 0 1 9.27,1 73.68,73.68 0 0 1 7.14,2 V 68.54 q -2.4,-0.65 -5.45,-1.24 a 66.1,66.1 0 0 0 -12.45,-1.15 q -13,0 -20.43,5.82 -7.43,5.82 -7.4,15.83 a 23.38,23.38 0 0 0 1.48,8.8 18.43,18.43 0 0 0 4.2,6.29 25.09,25.09 0 0 0 6.56,4.53 88.43,88.43 0 0 0 8.59,3.65 57.2,57.2 0 0 1 9.07,4.13 c 2,1.22 3,2.64 3,4.27 q 0,3.11 -2.3,4.19 c -1.54,0.72 -4.15,1.08 -7.85,1.08 a 51,51 0 0 1 -10.69,-1.15 q -2.87,-0.6 -5.65,-1.46 l -8.29,14.66 a 63.65,63.65 0 0 0 8.73,2.7 64.42,64.42 0 0 0 15.76,1.63 q 14.47,0 22.4,-5.4 7.93,-5.4 7.91,-15.94 a 27.15,27.15 0 0 0 -1,-7.83 15.91,15.91 0 0 0 -3.55,-6.14 z"
       id="path20"
       inkscape:connector-curvature="0" />
    <path
       style="fill:#ffffff;fill-opacity:1"
       class="fill-current"
       d="m 852.67,105.84 a 26.22,26.22 0 0 0 -6.84,-5.15 81.18,81.18 0 0 0 -11,-4.84 q -3.24,-1.23 -5.34,-2.25 a 22.39,22.39 0 0 1 -3.32,-1.91 4.57,4.57 0 0 1 -1.62,-1.82 5.49,5.49 0 0 1 -0.41,-2.17 q 0,-5.28 9.48,-5.28 a 41.59,41.59 0 0 1 9.26,1 c 2.57,0.59 4.94,1.27 7.15,2 V 68.57 c -1.61,-0.43 -3.42,-0.84 -5.45,-1.23 a 65.28,65.28 0 0 0 -12.45,-1.15 q -13,0 -20.44,5.82 -7.44,5.82 -7.44,15.83 a 23.28,23.28 0 0 0 1.49,8.79 18.1,18.1 0 0 0 4.2,6.29 25.35,25.35 0 0 0 6.56,4.54 92.51,92.51 0 0 0 8.59,3.65 57.2,57.2 0 0 1 9.07,4.13 q 3,1.83 3,4.26 c 0,2.08 -0.76,3.47 -2.3,4.19 -1.54,0.72 -4.15,1.09 -7.85,1.09 a 51,51 0 0 1 -10.68,-1.15 c -1.91,-0.41 -3.8,-0.89 -5.65,-1.46 l -8.29,14.65 a 63,63 0 0 0 24.49,4.33 q 14.48,0 22.39,-5.4 7.91,-5.4 7.92,-15.93 a 27.5,27.5 0 0 0 -1,-7.83 16,16 0 0 0 -3.52,-6.15 z"
       id="path22"
       inkscape:connector-curvature="0" />
    <path
       style="fill:#ffffff;fill-opacity:1"
       class="fill-current"
       d="m 553.72,141.15 a 50.05,50.05 0 0 1 -14.16,-1.88 20.87,20.87 0 0 1 -8.59,-4.9 16.25,16.25 0 0 1 -4.3,-7.65 41.23,41.23 0 0 1 -1.14,-10.13 V 39.48 h 20 v 73.08 a 26.14,26.14 0 0 0 0.41,4.83 7.55,7.55 0 0 0 4.83,6 17.9,17.9 0 0 0 5.77,1.21 z"
       id="path24"
       inkscape:connector-curvature="0" />
    <path
       style="fill:#ffffff;fill-opacity:1"
       class="fill-current"
       d="m 593.72,141.15 a 50.05,50.05 0 0 1 -14.16,-1.88 20.87,20.87 0 0 1 -8.59,-4.9 16.25,16.25 0 0 1 -4.3,-7.65 41.23,41.23 0 0 1 -1.14,-10.13 V 39.48 h 20 v 73.08 a 26.14,26.14 0 0 0 0.41,4.83 7.55,7.55 0 0 0 4.83,6 17.9,17.9 0 0 0 5.77,1.21 z"
       id="path26"
       inkscape:connector-curvature="0" />
    <path
       style="fill:#ffffff;fill-opacity:1"
       class="fill-current"
       d="m 793.72,141.15 a 50.05,50.05 0 0 1 -14.16,-1.88 20.87,20.87 0 0 1 -8.59,-4.9 16.25,16.25 0 0 1 -4.3,-7.65 41.23,41.23 0 0 1 -1.14,-10.13 V 39.48 h 20 v 73.08 a 26.14,26.14 0 0 0 0.41,4.83 7.55,7.55 0 0 0 4.83,6 17.9,17.9 0 0 0 5.77,1.21 z"
       id="path28"
       inkscape:connector-curvature="0" />
    <path
       style="fill:#ee4322;fill-opacity:1"
       d="m 507.2,72.82 q 0,5.7 -3.57,8.68 a 12.48,12.48 0 0 1 -16.19,0 q -3.57,-3 -3.57,-8.68 0,-5.68 3.57,-8.69 a 12.48,12.48 0 0 1 16.19,0 q 3.57,2.99 3.57,8.69 z"
       class="fill-primary"
       id="path30"
       inkscape:connector-curvature="0" />
    <path
       style="fill:#ee4322;fill-opacity:1"
       d="m 887.2,129.48 q 0,5.72 -3.57,8.69 a 12.48,12.48 0 0 1 -16.19,0 q -3.57,-3 -3.57,-8.69 0,-5.69 3.57,-8.68 a 12.48,12.48 0 0 1 16.19,0 q 3.57,2.97 3.57,8.68 z"
       class="fill-primary"
       id="path32"
       inkscape:connector-curvature="0" />
    <path
       style="fill:#ee4322;fill-opacity:1"
       d="m 1192.18,83.86 a 33.9,33.9 0 0 0 -13.75,-13.14 44.17,44.17 0 0 0 -39.13,0 33.94,33.94 0 0 0 -13.74,13.14 38,38 0 0 0 -5,19 v 0 66.66 h 20 v -32.2 a 44.29,44.29 0 0 0 37.7,-0.7 34.27,34.27 0 0 0 13.88,-13.13 38,38 0 0 0 5.09,-19.8 38.33,38.33 0 0 0 -5.05,-19.83 z m -22.54,33.25 a 14.79,14.79 0 0 1 -11,4.7 13.94,13.94 0 0 1 -10.77,-4.7 q -4.29,-4.69 -4.3,-13.46 -0.01,-8.77 4.37,-13.52 a 15.14,15.14 0 0 1 21.87,0.06 q 4.43,4.71 4.43,13.46 0,8.75 -4.6,13.46 z"
       class="fill-primary"
       id="path34"
       inkscape:connector-curvature="0" />
    <path
       style="fill:#ffffff;fill-opacity:1"
       class="fill-current"
       d="m 307.26,136.87 a 28,28 0 0 1 -4.33,1.62 53.57,53.57 0 0 1 -6,1.42 q -3.32,0.61 -7.1,1 a 71.44,71.44 0 0 1 -7.58,0.41 44.69,44.69 0 0 1 -16.71,-2.85 32.46,32.46 0 0 1 -11.78,-7.78 30.89,30.89 0 0 1 -6.9,-11.7 46.32,46.32 0 0 1 -2.23,-14.62 43.48,43.48 0 0 1 2.91,-16.57 35.64,35.64 0 0 1 7.62,-11.8 31.71,31.71 0 0 1 10.9,-7.17 34,34 0 0 1 12.65,-2.44 q 15.15,0 24,9.27 8.85,9.27 8.79,27.27 c 0,1.17 0,2.46 -0.13,3.85 -0.13,1.39 -0.18,2.64 -0.27,3.72 h -45.79 a 13.38,13.38 0 0 0 5.82,9.88 q 5.14,3.66 13.8,3.66 a 58.1,58.1 0 0 0 10.9,-1 c 1.11,-0.21 2.16,-0.44 3.15,-0.68 z M 292,96.48 a 20.56,20.56 0 0 0 -0.88,-5 A 12.17,12.17 0 0 0 284.87,84 12.85,12.85 0 0 0 279,82.82 13.49,13.49 0 0 0 273.16,84 a 12,12 0 0 0 -4.06,3 13.62,13.62 0 0 0 -2.5,4.4 28.57,28.57 0 0 0 -1.29,5.07 z"
       id="path36"
       inkscape:connector-curvature="0" />
    <path
       style="fill:#ee432f;fill-opacity:0.94117647"
       d="M 84.52,75.41 A 29.6,29.6 0 0 1 56.34,51.8 14.7,14.7 0 0 1 53.67,50.74 12.22,12.22 0 0 1 48.78,46 13.93,13.93 0 0 1 47,38.89 a 13.88,13.88 0 0 1 1.81,-7.12 12.22,12.22 0 0 1 5,-4.72 15.91,15.91 0 0 1 14.07,0 12.2,12.2 0 0 1 4.94,4.72 13.78,13.78 0 0 1 1.81,7.12 13.65,13.65 0 0 1 -1.89,7.11 12.28,12.28 0 0 1 -5,4.73 14.93,14.93 0 0 1 -3.07,1.16 21.53,21.53 0 0 0 19.85,15.45 V 36.49 c -0.35,-0.15 -0.71,-0.31 -1,-0.49 a 12.11,12.11 0 0 1 -4.9,-4.7 14,14 0 0 1 -1.78,-7.14 13.73,13.73 0 0 1 1.76,-7.16 12.16,12.16 0 0 1 4.94,-4.73 15.91,15.91 0 0 1 14.07,0 12.18,12.18 0 0 1 5,4.73 13.83,13.83 0 0 1 1.81,7.12 13.7,13.7 0 0 1 -1.83,7.12 12.35,12.35 0 0 1 -5,4.72 c -0.29,0.15 -0.6,0.3 -0.91,0.43 v 45 a 31,31 0 0 0 19.24,-23.68 13.72,13.72 0 0 1 -2.31,-1 12,12 0 0 1 -4.89,-4.7 13.89,13.89 0 0 1 -1.84,-7.01 13.73,13.73 0 0 1 1.81,-7.12 12.13,12.13 0 0 1 4.94,-4.72 15.84,15.84 0 0 1 14.08,0 12.13,12.13 0 0 1 4.94,4.72 13.73,13.73 0 0 1 1.81,7.12 13.67,13.67 0 0 1 -1.83,7.12 12.32,12.32 0 0 1 -5,4.72 A 14,14 0 0 1 124,58.08 39.15,39.15 0 0 1 96.63,90 v 11.74 A 55.14,55.14 0 0 0 140,71.26 V 33.7 A 33.69,33.69 0 0 0 106.26,0 h -44.2 a 55,55 0 0 0 10.5,99 v 13.52 A 67.87,67.87 0 0 1 41.63,0 H 33.7 A 33.7,33.7 0 0 0 0,33.7 v 72.56 A 33.69,33.69 0 0 0 33.7,140 h 50.82 z"
       class="fill-primary"
       id="path38"
       inkscape:connector-curvature="0" />
    <path
       style="fill:#ee432f;fill-opacity:0.94117647"
       d="m 126.19,45 a 6.81,6.81 0 0 0 -1.6,-4.84 5.46,5.46 0 0 0 -7.87,0 6.9,6.9 0 0 0 -1.56,4.84 6.93,6.93 0 0 0 1.54,4.84 5,5 0 0 0 3.88,1.69 5.33,5.33 0 0 0 4,-1.69 6.69,6.69 0 0 0 1.61,-4.84 z"
       class="fill-primary"
       id="path40"
       inkscape:connector-curvature="0" />
    <path
       style="fill:#ee432f;fill-opacity:0.94117647"
       d="M 96.63,114.69 V 140 h 9.63 A 33.69,33.69 0 0 0 140,106.26 V 93.61 a 67.78,67.78 0 0 1 -43.37,21.08 z"
       class="fill-primary"
       id="path42"
       inkscape:connector-curvature="0" />
    <path
       style="fill:#ee432f;fill-opacity:0.94117647"
       d="m 60.78,32.36 a 5.18,5.18 0 0 0 -3.94,1.64 6.81,6.81 0 0 0 -1.57,4.86 6.91,6.91 0 0 0 1.54,4.84 5,5 0 0 0 3.88,1.7 5.34,5.34 0 0 0 4,-1.7 6.67,6.67 0 0 0 1.64,-4.84 6.8,6.8 0 0 0 -1.59,-4.84 5.18,5.18 0 0 0 -3.96,-1.66 z"
       class="fill-primary"
       id="path44"
       inkscape:connector-curvature="0" />
    <path
       style="fill:#ee432f;fill-opacity:0.94117647"
       d="m 90.58,17.62 a 5.2,5.2 0 0 0 -4,1.67 6.89,6.89 0 0 0 -1.57,4.87 6.93,6.93 0 0 0 1.6,4.84 5,5 0 0 0 3.87,1.69 5.3,5.3 0 0 0 4,-1.69 6.65,6.65 0 0 0 1.64,-4.84 6.83,6.83 0 0 0 -1.59,-4.85 5.2,5.2 0 0 0 -3.95,-1.69 z"
       class="fill-primary"
       id="path46"
       inkscape:connector-curvature="0" />
  </g>
</svg>
